<svg xmlns="http://www.w3.org/2000/svg" viewBox="0 0 32 32">
  <!-- Green background matching brand color -->
  <rect width="32" height="32" rx="6" fill="#059669"/>
  <!-- Leaf shape -->
  <path d="M16 7c-2.5 0-5 1.5-6.5 4-1.5-2.5-4-4-6.5-4v1.5c1.5 0 3 0.8 3 2.2-1 1.5-1.5 3-1.5 4.5v1.5c0 2.5 1.5 4.5 3.5 5.5 1 0.8 1.5 0.8 2.5 0.8h1.5v-1.5h-1.5c-1 0-1.5 0-1.5-0.8v-1.5c0-1.5 1-2.5 1.5-2.5h1.5c2.5 0 5-1.5 6.5-4 1.5 2.5 4 4 6.5 4v-1.5c-1.5 0-3-0.8-3-2.2 1-1.5 1.5-3 1.5-4.5V9c0-2.5-1.5-4.5-3.5-5.5-1-0.8-1.5-0.8-2.5-0.8h-1.5V7h1.5c1 0 1.5 0 1.5 0.8v1.5c0 1.5-1 2.5-1.5 2.5h-1.5c-2.5 0-5 1.5-6.5 4z" fill="white" opacity="0.95"/>
  <!-- Leaf center line -->
  <path d="M16 9.5c0.8 0 1.5 0.7 1.5 1.5v3c0 0.8-0.7 1.5-1.5 1.5s-1.5-0.7-1.5-1.5v-3c0-0.8 0.7-1.5 1.5-1.5z" fill="white"/>
</svg>
